<?xml version="1.0" encoding="UTF-8" standalone="no"?>
<!-- Created with Inkscape (http://www.inkscape.org/) -->

<svg
   xmlns:dc="http://purl.org/dc/elements/1.1/"
   xmlns:cc="http://creativecommons.org/ns#"
   xmlns:rdf="http://www.w3.org/1999/02/22-rdf-syntax-ns#"
   xmlns:svg="http://www.w3.org/2000/svg"
   xmlns="http://www.w3.org/2000/svg"
   xmlns:sodipodi="http://sodipodi.sourceforge.net/DTD/sodipodi-0.dtd"
   xmlns:inkscape="http://www.inkscape.org/namespaces/inkscape"
   width="1052.3622"
   height="744.09448"
   id="svg2"
   version="1.1"
   inkscape:version="0.48.4 r9939"
   sodipodi:docname="FrontPageLandscape.svg">
  <defs
     id="defs4" />
  <sodipodi:namedview
     id="base"
     pagecolor="#ffffff"
     bordercolor="#666666"
     borderopacity="1.0"
     inkscape:pageopacity="0.0"
     inkscape:pageshadow="2"
     inkscape:zoom="0.7"
     inkscape:cx="412.02216"
     inkscape:cy="389.103"
     inkscape:document-units="mm"
     inkscape:current-layer="layer3"
     showgrid="false"
     inkscape:window-width="1680"
     inkscape:window-height="1000"
     inkscape:window-x="0"
     inkscape:window-y="0"
     inkscape:window-maximized="1"
     showguides="false"
     inkscape:guide-bbox="true"
     units="mm"
     inkscape:snap-grids="false"
     inkscape:snap-bbox="true"
     inkscape:snap-bbox-midpoints="true"
     inkscape:snap-global="true"
     inkscape:snap-to-guides="true">
    <sodipodi:guide
       orientation="0,1"
       position="-35.433071,350.7874"
       id="guide3069" />
    <sodipodi:guide
       orientation="0,1"
       position="-35.433071,701.5748"
       id="guide3071" />
    <inkscape:grid
       units="mm"
       empspacing="10"
       visible="true"
       enabled="true"
       snapvisiblegridlinesonly="true"
       type="xygrid"
       id="grid3073" />
    <sodipodi:guide
       orientation="0,1"
       position="-35.433071,526.1811"
       id="guide3079" />
    <sodipodi:guide
       orientation="0,1"
       position="-35.433071,175.3937"
       id="guide3081" />
    <sodipodi:guide
       orientation="0,1"
       position="-35.433071,876.9685"
       id="guide3083" />
    <sodipodi:guide
       orientation="0,1"
       position="-35.433071,789.27165"
       id="guide3085" />
    <sodipodi:guide
       orientation="0,1"
       position="-35.433071,613.87795"
       id="guide3087" />
    <sodipodi:guide
       orientation="0,1"
       position="-35.433071,87.69685"
       id="guide3089" />
  </sodipodi:namedview>
  <metadata
     id="metadata7">
    <rdf:RDF>
      <cc:Work
         rdf:about="">
        <dc:format>image/svg+xml</dc:format>
        <dc:type
           rdf:resource="http://purl.org/dc/dcmitype/StillImage" />
        <dc:title />
      </cc:Work>
    </rdf:RDF>
  </metadata>
  <g
     inkscape:groupmode="layer"
     id="layer3"
     inkscape:label="Deckblatt"
     transform="translate(0,-308.2677)"
     style="display:inline">
    <g
       id="g3055"
       transform="translate(247.91528,309.51804)">
      <text
         sodipodi:linespacing="125%"
         id="text3047"
         y="434.14883"
         x="279.31418"
         style="font-size:16px;font-style:normal;font-variant:normal;font-weight:normal;font-stretch:normal;text-align:center;line-height:125%;letter-spacing:2.13999987px;word-spacing:0px;text-anchor:middle;fill:#000000;fill-opacity:1;stroke:none;font-family:EB Garamond 12 All SC;-inkscape-font-specification:EB Garamond 12 All SC"
         xml:space="preserve"><tspan
           y="434.14883"
           x="280.38419"
           id="tspan3049"
           sodipodi:role="line">JAN DISMAS</tspan></text>
      <text
         sodipodi:linespacing="125%"
         id="text3051"
         y="452.66589"
         x="277.94019"
         style="font-size:12px;font-style:normal;font-variant:normal;font-weight:normal;font-stretch:normal;text-align:center;line-height:125%;letter-spacing:5.19000053px;word-spacing:0px;text-anchor:middle;fill:#d40000;fill-opacity:1;stroke:none;font-family:EB Garamond;-inkscape-font-specification:EB Garamond"
         xml:space="preserve"><tspan
           style="font-size:20px;letter-spacing:5.19000053px;fill:#d40000"
           y="452.66589"
           x="280.53519"
           id="tspan3053"
           sodipodi:role="line">ZELENKA</tspan></text>
    </g>
    <text
       xml:space="preserve"
       style="font-size:12px;font-style:normal;font-variant:normal;font-weight:normal;font-stretch:normal;text-align:center;line-height:110.00000238%;letter-spacing:0px;word-spacing:0px;text-anchor:middle;fill:#000000;fill-opacity:1;stroke:none;font-family:EB Garamond;-inkscape-font-specification:EB Garamond"
       x="526.22748"
       y="542.40393"
       id="text3061"
       sodipodi:linespacing="110%"><tspan
         sodipodi:role="line"
         x="526.22748"
         y="542.40393"
         style="font-size:14px;font-style:normal;line-height:110.00000238%;-inkscape-font-specification:EB Garamond"
         id="tspan3077">Miserere</tspan></text>
    <text
       xml:space="preserve"
       style="font-size:14px;font-style:normal;font-variant:normal;font-weight:normal;font-stretch:normal;text-align:center;line-height:125%;letter-spacing:1.84000015px;word-spacing:0px;text-anchor:middle;fill:#000000;fill-opacity:1;stroke:none;font-family:EB Garamond 12 All SC;-inkscape-font-specification:EB Garamond 12 All SC"
       x="526.20123"
       y="967.76636"
       id="text3099"
       sodipodi:linespacing="125%"><tspan
         sodipodi:role="line"
         x="527.12122"
         y="967.76636"
         id="tspan3023">full score</tspan></text>
    <text
       sodipodi:linespacing="110%"
       id="text3021"
       y="876.96851"
       x="526.0517"
       style="font-size:12px;font-style:normal;font-variant:normal;font-weight:normal;font-stretch:normal;text-align:center;line-height:110.00000238%;letter-spacing:0px;word-spacing:0px;text-anchor:middle;fill:#000000;fill-opacity:1;stroke:none;font-family:EB Garamond;-inkscape-font-specification:EB Garamond"
       xml:space="preserve"><tspan
         id="tspan3032"
         style="font-size:14px;font-style:normal;line-height:110.00000238%;-inkscape-font-specification:EB Garamond"
         y="876.96851"
         x="526.0517"
         sodipodi:role="line">S (Solo), S, A, T, B (Coro), 2 ob, 2 vl, vla, b, org</tspan></text>
    <g
       style="font-size:72px;font-style:normal;font-variant:normal;font-weight:normal;font-stretch:normal;text-align:center;line-height:125%;letter-spacing:0px;word-spacing:0px;text-anchor:middle;fill:none;stroke:#808080;stroke-width:0.625;stroke-miterlimit:4;stroke-dasharray:none;font-family:EB Garamond;-inkscape-font-specification:EB Garamond"
       id="text3014"
       transform="translate(151.90832,306.48953)">
      <path
         d="m 261.08708,180.21704 -1.224,-23.76 c -0.216,-4.104 0.576,-5.54401 2.808,-6.48 2.88,-1.224 3.456,-1.44001 3.456,-2.16 0,-0.72 -0.288,-1.224 -1.152,-1.224 -2.304,0 -7.272,0.72 -9.144,0.72 -1.872,0 -2.88,0 -3.672,1.656 l -11.304,23.472 c -1.368,2.73599 -1.656,1.58399 -2.232,0.072 l -8.424,-20.664 c -1.368,-3.24 -2.592,-4.536 -4.536,-4.536 -3.312,0 -5.4,-0.36 -7.992,-0.36 -0.864,0 -2.448,-0.072 -2.448,1.008 0,1.15199 2.592,2.232 3.888,3.456 1.8,1.65599 2.952,3.024 2.304,8.136 l -2.448,19.152 c -0.504,3.59999 -1.728,6.48 -4.176,7.56 -1.656,0.71999 -3.96,1.08 -3.96,2.16 0,0.71999 1.584,1.152 2.376,1.224 0.504,0 3.24,-0.432 6.624,-0.432 3.456,0 6.624,0.432 7.128,0.432 0.792,-0.072 2.304,-0.50401 2.304,-1.224 0,-1.08 -2.376,-1.44001 -3.96,-2.16 -1.872,-0.864 -2.376,-4.39201 -2.232,-6.336 l 1.224,-20.088 c 0.072,-1.8 0.72,-2.808 1.8,-0.072 l 8.856,22.68 c 1.512,3.88799 2.088,4.464 2.808,4.464 0.648,0 3.672,-6.19201 3.96,-6.84 l 9.72,-22.32 c 0.504,-1.296 1.8,-1.584 1.872,-0.216 l 0.936,22.68 c 0.144,2.66399 -0.936,4.968 -3.384,6.048 -1.584,0.71999 -3.96,1.08 -3.96,2.16 0,0.71999 1.584,1.152 2.376,1.224 0.504,0 4.752,-0.432 8.136,-0.432 3.456,0 8.208,0.432 8.712,0.432 0.792,-0.072 2.304,-0.50401 2.304,-1.224 0,-1.08 -2.376,-1.44001 -3.96,-2.16 -2.448,-1.08 -3.24,-3.38401 -3.384,-6.048"
         style="fill:none;stroke:#808080;stroke-width:0.625;stroke-miterlimit:4;stroke-dasharray:none"
         id="path3019"
         inkscape:connector-curvature="0" />
      <path
         d="m 288.55508,146.95304 c -2.448,0 -5.4,0.36 -7.92,0.36 -2.592,0 -5.184,-0.36 -7.992,-0.36 -1.08,0 -2.52,0.432 -2.52,1.296 0,0.64799 0.504,1.008 1.152,1.224 4.104,1.15199 5.904,1.224 5.904,5.328 l 0,26.28 c 0,2.66399 -0.936,4.104 -3.384,5.184 -1.584,0.71999 -3.96,1.08 -3.96,2.16 0,0.71999 1.584,1.152 2.376,1.224 0.504,0 4.752,-0.432 8.136,-0.432 3.456,0 8.208,0.432 8.712,0.432 0.792,-0.072 2.304,-0.50401 2.304,-1.224 0,-1.08 -2.376,-1.44001 -3.96,-2.16 -2.448,-1.08 -3.384,-2.52001 -3.384,-5.184 l 0,-26.28 c 0,-4.104 1.872,-4.17601 5.976,-5.328 0.648,-0.216 1.08,-0.57601 1.08,-1.224 0,-0.864 -1.44,-1.296 -2.52,-1.296"
         style="fill:none;stroke:#808080;stroke-width:0.625;stroke-miterlimit:4;stroke-dasharray:none"
         id="path3021"
         inkscape:connector-curvature="0" />
      <path
         d="m 309.56783,146.23304 c -7.05599,0 -12.816,5.328 -12.816,12.096 0,3.52799 1.656,6.12 4.248,8.28 l 9.72,8.208 c 1.8,1.51199 2.88,3.312 2.88,5.76 0,3.59999 -2.664,6.912 -6.264,6.912 -4.176,0 -6.984,-2.08801 -7.776,-4.68 -0.648,-2.16 -1.296,-3.384 -2.448,-3.384 -0.72,0 -1.224,0.864 -1.368,1.728 -0.216,0.93599 -0.504,3.96 -0.504,4.968 0,1.00799 0.648,1.368 3.312,2.592 1.728,0.79199 5.04,1.584 7.56,1.584 7.19999,0 14.472,-5.25601 14.472,-12.312 0,-3.024 -1.224,-5.47201 -3.456,-7.344 l -10.152,-8.568 c -2.16,-1.8 -3.672,-3.67201 -3.672,-6.048 0,-3.168 2.808,-5.688 5.904,-5.688 2.088,0 4.968,0.864 5.688,2.592 1.08,2.59199 2.016,3.312 2.88,3.312 1.08,0 1.44,-1.00801 1.44,-1.944 0,-1.368 -0.072,-2.95201 -0.288,-4.104 -0.144,-0.792 -0.792,-1.36801 -2.16,-2.088 -1.584,-0.792 -4.896,-1.872 -7.2,-1.872"
         style="fill:none;stroke:#808080;stroke-width:0.625;stroke-miterlimit:4;stroke-dasharray:none"
         id="path3023"
         inkscape:connector-curvature="0" />
      <path
         d="m 337.87846,163.87304 0,-12.096 c 0,-0.936 0.288,-1.512 2.232,-1.512 l 8.568,0 c 3.45599,0 5.256,1.152 5.832,2.376 0.64799,1.43999 1.728,2.736 2.592,2.736 0.86399,0 1.152,-1.00801 1.152,-1.872 0,-0.792 -0.36,-4.75201 -0.648,-5.904 -0.144,-0.648 -0.72001,-1.008 -1.872,-1.008 -1.296,0 -5.54401,0.36 -8.568,0.36 l -20.664,0 c -1.512,0 -2.52,0.432 -2.52,1.296 0,0.64799 0.504,1.008 1.152,1.224 4.10399,1.15199 5.904,1.224 5.904,5.328 l 0,26.28 c 0,2.66399 -0.93601,4.104 -3.384,5.184 -1.584,0.71999 -3.96,1.08 -3.96,2.16 0,0.71999 1.584,1.152 2.376,1.224 0.504,0 4.752,-0.36 8.136,-0.36 7.63199,0 20.664,0.36 23.328,0.36 1.22399,0 1.368,-0.28801 1.944,-1.368 0.57599,-0.936 2.736,-6.26401 2.736,-8.28 0,-1.08 -0.28801,-1.8 -1.008,-1.8 -0.648,0 -1.584,0.576 -1.944,1.368 -2.088,4.39199 -3.02401,6.696 -8.568,6.696 l -10.08,0 c -2.088,0 -2.736,-0.93601 -2.736,-2.808 l 0,-12.096 c 0,-1.368 0.36,-1.728 1.728,-1.728 l 7.56,0 c 1.51199,0 2.016,0.72 2.52,1.512 0.432,0.71999 1.368,2.736 2.304,2.736 0.71999,0 0.936,-1.15201 0.936,-1.872 0,-0.792 -0.072,-3.02401 -0.072,-4.104 0,-1.08 0.288,-3.60001 0.288,-4.176 0,-0.864 -0.14401,-1.44 -0.792,-1.44 -0.792,0 -1.44001,1.08 -2.232,1.8 -1.296,1.22399 -2.08801,2.016 -4.392,2.016 l -6.192,0 c -1.008,0 -1.656,-0.50401 -1.656,-2.232"
         style="fill:none;stroke:#808080;stroke-width:0.625;stroke-miterlimit:4;stroke-dasharray:none"
         id="path3025"
         inkscape:connector-curvature="0" />
      <path
         d="m 393.34433,171.79304 c -0.936,-1.368 -1.8,-2.95201 -1.8,-3.6 0,-0.648 0.288,-0.57601 1.224,-1.296 3.384,-2.448 5.688,-5.47201 5.688,-10.08 0,-7.272 -8.06401,-10.296 -15.336,-10.296 -6.40799,0 -9.36001,0.216 -15.696,0.72 -1.512,0.072 -2.52,0.432 -2.52,1.296 0,0.64799 0.504,1.008 1.152,1.224 4.104,1.15199 5.904,1.224 5.904,5.328 l 0,25.992 c 0,2.66399 -0.936,4.104 -3.384,5.184 -1.584,0.71999 -3.96,1.08 -3.96,2.16 0,0.71999 1.584,1.152 2.376,1.224 0.504,0 4.824,-0.432 7.92,-0.432 3.456,0 8.208,0.432 8.712,0.432 0.792,-0.072 2.304,-0.50401 2.304,-1.224 0,-1.08 -2.376,-1.44001 -3.96,-2.16 -2.448,-1.08 -3.384,-2.52001 -3.384,-5.184 l 0,-8.64 c 0,-1.44 0.504,-1.944 2.016,-1.944 3.024,0 5.112,0.936 5.976,2.376 3.744,6.26399 7.128,10.512 11.376,14.976 2.016,2.15999 5.616,3.384 9.144,3.384 2.52,0 5.04,-0.86401 5.04,-2.16 0,-0.576 -0.432,-1.152 -1.224,-1.224 -1.584,-0.144 -3.24,-0.50401 -4.104,-1.152 -5.39999,-3.888 -9.936,-9.64801 -13.464,-14.904 m -11.808,-3.888 c -2.088,0 -2.952,-0.57601 -2.952,-1.872 l 0,-13.896 c 0,-1.368 1.584,-2.448 3.6,-2.448 4.824,0 9.072,3.384 9.072,8.208 0,3.74399 -1.584,6.192 -4.392,8.568 -0.648,0.71999 -3.168,1.44 -5.328,1.44"
         style="fill:none;stroke:#808080;stroke-width:0.625;stroke-miterlimit:4;stroke-dasharray:none"
         id="path3027"
         inkscape:connector-curvature="0" />
      <path
         d="m 425.62846,163.87304 0,-12.096 c 0,-0.936 0.288,-1.512 2.232,-1.512 l 8.568,0 c 3.45599,0 5.256,1.152 5.832,2.376 0.64799,1.43999 1.728,2.736 2.592,2.736 0.86399,0 1.152,-1.00801 1.152,-1.872 0,-0.792 -0.36,-4.75201 -0.648,-5.904 -0.144,-0.648 -0.72001,-1.008 -1.872,-1.008 -1.296,0 -5.54401,0.36 -8.568,0.36 l -20.664,0 c -1.512,0 -2.52,0.432 -2.52,1.296 0,0.64799 0.504,1.008 1.152,1.224 4.10399,1.15199 5.904,1.224 5.904,5.328 l 0,26.28 c 0,2.66399 -0.93601,4.104 -3.384,5.184 -1.584,0.71999 -3.96,1.08 -3.96,2.16 0,0.71999 1.584,1.152 2.376,1.224 0.504,0 4.752,-0.36 8.136,-0.36 7.63199,0 20.664,0.36 23.328,0.36 1.22399,0 1.368,-0.28801 1.944,-1.368 0.57599,-0.936 2.736,-6.26401 2.736,-8.28 0,-1.08 -0.28801,-1.8 -1.008,-1.8 -0.648,0 -1.584,0.576 -1.944,1.368 -2.088,4.39199 -3.02401,6.696 -8.568,6.696 l -10.08,0 c -2.088,0 -2.736,-0.93601 -2.736,-2.808 l 0,-12.096 c 0,-1.368 0.36,-1.728 1.728,-1.728 l 7.56,0 c 1.51199,0 2.016,0.72 2.52,1.512 0.432,0.71999 1.368,2.736 2.304,2.736 0.71999,0 0.936,-1.15201 0.936,-1.872 0,-0.792 -0.072,-3.02401 -0.072,-4.104 0,-1.08 0.288,-3.60001 0.288,-4.176 0,-0.864 -0.14401,-1.44 -0.792,-1.44 -0.792,0 -1.44001,1.08 -2.232,1.8 -1.296,1.22399 -2.08801,2.016 -4.392,2.016 l -6.192,0 c -1.008,0 -1.656,-0.50401 -1.656,-2.232"
         style="fill:none;stroke:#808080;stroke-width:0.625;stroke-miterlimit:4;stroke-dasharray:none"
         id="path3029"
         inkscape:connector-curvature="0" />
      <path
         d="m 481.09433,171.79304 c -0.936,-1.368 -1.8,-2.95201 -1.8,-3.6 0,-0.648 0.288,-0.57601 1.224,-1.296 3.384,-2.448 5.688,-5.47201 5.688,-10.08 0,-7.272 -8.06401,-10.296 -15.336,-10.296 -6.40799,0 -9.36001,0.216 -15.696,0.72 -1.512,0.072 -2.52,0.432 -2.52,1.296 0,0.64799 0.504,1.008 1.152,1.224 4.104,1.15199 5.904,1.224 5.904,5.328 l 0,25.992 c 0,2.66399 -0.936,4.104 -3.384,5.184 -1.584,0.71999 -3.96,1.08 -3.96,2.16 0,0.71999 1.584,1.152 2.376,1.224 0.504,0 4.824,-0.432 7.92,-0.432 3.456,0 8.208,0.432 8.712,0.432 0.792,-0.072 2.304,-0.50401 2.304,-1.224 0,-1.08 -2.376,-1.44001 -3.96,-2.16 -2.448,-1.08 -3.384,-2.52001 -3.384,-5.184 l 0,-8.64 c 0,-1.44 0.504,-1.944 2.016,-1.944 3.024,0 5.112,0.936 5.976,2.376 3.744,6.26399 7.128,10.512 11.376,14.976 2.016,2.15999 5.616,3.384 9.144,3.384 2.52,0 5.04,-0.86401 5.04,-2.16 0,-0.576 -0.432,-1.152 -1.224,-1.224 -1.584,-0.144 -3.24,-0.50401 -4.104,-1.152 -5.39999,-3.888 -9.936,-9.64801 -13.464,-14.904 m -11.808,-3.888 c -2.088,0 -2.952,-0.57601 -2.952,-1.872 l 0,-13.896 c 0,-1.368 1.584,-2.448 3.6,-2.448 4.824,0 9.072,3.384 9.072,8.208 0,3.74399 -1.584,6.192 -4.392,8.568 -0.648,0.71999 -3.168,1.44 -5.328,1.44"
         style="fill:none;stroke:#808080;stroke-width:0.625;stroke-miterlimit:4;stroke-dasharray:none"
         id="path3031"
         inkscape:connector-curvature="0" />
      <path
         d="m 513.37846,163.87304 0,-12.096 c 0,-0.936 0.288,-1.512 2.232,-1.512 l 8.568,0 c 3.45599,0 5.256,1.152 5.832,2.376 0.64799,1.43999 1.728,2.736 2.592,2.736 0.86399,0 1.152,-1.00801 1.152,-1.872 0,-0.792 -0.36,-4.75201 -0.648,-5.904 -0.144,-0.648 -0.72001,-1.008 -1.872,-1.008 -1.296,0 -5.54401,0.36 -8.568,0.36 l -20.664,0 c -1.512,0 -2.52,0.432 -2.52,1.296 0,0.64799 0.504,1.008 1.152,1.224 4.10399,1.15199 5.904,1.224 5.904,5.328 l 0,26.28 c 0,2.66399 -0.93601,4.104 -3.384,5.184 -1.584,0.71999 -3.96,1.08 -3.96,2.16 0,0.71999 1.584,1.152 2.376,1.224 0.504,0 4.752,-0.36 8.136,-0.36 7.63199,0 20.664,0.36 23.328,0.36 1.22399,0 1.368,-0.28801 1.944,-1.368 0.57599,-0.936 2.736,-6.26401 2.736,-8.28 0,-1.08 -0.28801,-1.8 -1.008,-1.8 -0.648,0 -1.584,0.576 -1.944,1.368 -2.088,4.39199 -3.02401,6.696 -8.568,6.696 l -10.08,0 c -2.088,0 -2.736,-0.93601 -2.736,-2.808 l 0,-12.096 c 0,-1.368 0.36,-1.728 1.728,-1.728 l 7.56,0 c 1.51199,0 2.016,0.72 2.52,1.512 0.432,0.71999 1.368,2.736 2.304,2.736 0.71999,0 0.936,-1.15201 0.936,-1.872 0,-0.792 -0.072,-3.02401 -0.072,-4.104 0,-1.08 0.288,-3.60001 0.288,-4.176 0,-0.864 -0.14401,-1.44 -0.792,-1.44 -0.792,0 -1.44001,1.08 -2.232,1.8 -1.296,1.22399 -2.08801,2.016 -4.392,2.016 l -6.192,0 c -1.008,0 -1.656,-0.50401 -1.656,-2.232"
         style="fill:none;stroke:#808080;stroke-width:0.625;stroke-miterlimit:4;stroke-dasharray:none"
         id="path3034"
         inkscape:connector-curvature="0" />
    </g>
  </g>
</svg>
